<?xml version="1.0" standalone="no"?>
<!DOCTYPE svg PUBLIC "-//W3C//DTD SVG 20010904//EN"
 "http://www.w3.org/TR/2001/REC-SVG-20010904/DTD/svg10.dtd">
<svg version="1.0" xmlns="http://www.w3.org/2000/svg"
 width="370.000000pt" height="121.000000pt" viewBox="0 0 370.000000 121.000000"
 preserveAspectRatio="xMidYMid meet">

<g transform="translate(0.000000,121.000000) scale(0.100000,-0.100000)"
fill="#000000" stroke="none">
<path d="M507 969 c-10 -6 -24 -8 -32 -5 -8 3 -15 0 -17 -5 -2 -6 -10 -11 -18
-13 -8 -1 -25 -8 -37 -14 -13 -7 -23 -10 -23 -7 0 3 -9 1 -20 -5 -11 -6 -20
-19 -20 -30 0 -22 -64 -75 -80 -65 -24 15 -1 -160 32 -239 46 -109 84 -146
117 -113 10 10 16 7 31 -13 14 -19 22 -22 31 -13 6 6 17 9 24 7 7 -3 15 4 18
16 4 15 11 19 29 16 12 -3 26 -5 31 -5 4 -1 7 -8 7 -16 0 -16 40 -17 52 -1 4
6 17 5 34 -3 25 -11 30 -10 47 11 39 49 88 168 97 240 13 103 13 105 -17 120
-15 7 -38 29 -51 48 -19 29 -39 41 -110 67 -99 36 -100 36 -125 22z m147 -79
c79 -57 107 -150 67 -228 -21 -41 -68 -81 -54 -47 4 11 -6 9 -32 -10 -34 -22
-46 -25 -107 -22 -51 3 -77 10 -98 25 -18 14 -30 17 -32 10 -6 -18 -24 -2 -43
39 -22 45 -21 122 1 170 46 96 204 130 298 63z m-66 -329 c18 -1 32 -6 32 -13
0 -9 -24 -13 -85 -14 -50 0 -84 4 -82 9 2 6 16 11 31 13 16 2 30 5 33 7 2 3
12 4 21 2 9 -2 32 -4 50 -4z"/>
<path d="M477 866 c-61 -31 -90 -79 -84 -139 2 -27 8 -52 13 -57 14 -14 63 0
69 20 4 14 18 19 60 22 49 3 55 1 60 -19 8 -32 70 -33 80 -2 39 123 -84 233
-198 175z m76 -22 c9 -3 12 -14 9 -30 -4 -23 -5 -23 -18 -7 -8 11 -13 13 -14
6 0 -7 -4 -13 -10 -13 -6 0 -5 10 2 25 13 28 11 27 31 19z m72 -23 c3 -5 1
-12 -5 -16 -5 -3 -10 1 -10 9 0 18 6 21 15 7z m-155 -11 c0 -5 -5 -10 -11 -10
-5 0 -7 5 -4 10 3 6 8 10 11 10 2 0 4 -4 4 -10z m50 -37 c0 -5 -5 -15 -10 -23
-8 -12 -10 -11 -10 8 0 12 5 22 10 22 6 0 10 -3 10 -7z m70 0 c0 -5 -5 -15
-10 -23 -8 -12 -10 -11 -10 8 0 12 5 22 10 22 6 0 10 -3 10 -7z"/>
<path d="M440 630 c0 -4 11 -12 25 -18 20 -9 30 -9 45 0 15 9 27 10 48 2 22
-9 35 -8 56 3 14 7 26 15 26 18 0 2 -45 3 -100 3 -55 -1 -100 -4 -100 -8z"/>
<path d="M3106 745 c-9 -9 -33 -15 -60 -15 -44 0 -46 -1 -46 -30 0 -23 5 -30
19 -30 11 0 21 5 23 12 2 6 11 9 19 6 9 -4 1 -11 -23 -22 -21 -9 -38 -21 -38
-26 0 -21 29 -21 70 0 34 17 39 24 30 36 -10 12 -7 14 20 14 24 0 31 -4 27
-15 -4 -9 8 -23 36 -39 37 -22 44 -24 56 -11 17 17 18 16 -34 43 -38 20 -39
21 -12 22 15 0 27 -4 27 -10 0 -5 9 -10 21 -10 16 0 20 5 17 28 -3 25 -7 27
-53 30 -30 2 -53 9 -58 18 -10 18 -22 18 -41 -1z"/>
<path d="M1247 739 c-17 -10 -17 -12 -1 -37 9 -15 28 -42 41 -60 24 -32 26
-32 44 -16 18 16 18 18 -14 54 -17 20 -36 44 -42 53 -8 13 -14 14 -28 6z"/>
<path d="M1517 743 c-9 -2 -15 -9 -12 -14 4 -5 -18 -9 -49 -9 -56 0 -56 0 -56
-30 0 -23 4 -30 20 -30 11 0 20 7 20 15 0 12 17 15 90 15 71 0 90 -3 90 -14 0
-9 7 -12 20 -9 13 3 20 14 20 29 0 22 -4 24 -50 24 -36 0 -52 4 -56 15 -6 16
-7 16 -37 8z"/>
<path d="M1770 735 c0 -9 -9 -15 -25 -15 -16 0 -25 -6 -25 -15 0 -8 4 -15 8
-15 4 0 8 -9 8 -20 0 -11 -6 -20 -13 -20 -7 0 -13 -7 -13 -15 0 -12 16 -15 80
-15 64 0 80 3 80 15 0 8 -6 15 -13 15 -7 0 -13 9 -13 20 0 11 4 20 8 20 4 0 8
7 8 15 0 9 -9 15 -25 15 -16 0 -25 6 -25 15 0 8 -9 15 -20 15 -11 0 -20 -7
-20 -15z m38 -65 c-7 -11 -19 -20 -27 -20 -8 0 -11 3 -8 7 4 3 2 12 -4 20 -9
10 -5 13 20 13 29 0 30 -2 19 -20z"/>
<path d="M2055 720 l-29 -30 22 -20 c14 -13 35 -20 62 -20 22 0 40 -4 40 -10
0 -5 -20 -10 -44 -10 -37 0 -45 -4 -50 -22 -12 -48 -8 -58 27 -59 l32 -1 -43
-20 c-36 -16 -41 -22 -31 -34 15 -19 20 -18 63 11 20 14 39 25 41 25 3 0 5
-11 5 -25 0 -18 5 -25 20 -25 16 0 20 7 20 35 0 33 2 35 35 35 24 0 35 -5 35
-15 0 -10 -10 -15 -30 -15 -22 0 -28 -4 -24 -15 7 -18 65 -20 82 -3 7 7 12 27
12 45 l0 33 -55 0 c-30 0 -55 5 -55 10 0 6 23 10 50 10 l50 0 0 40 c0 31 -4
40 -17 41 -11 0 -13 3 -5 6 6 2 10 9 6 14 -3 5 4 9 16 9 41 0 14 25 -35 33
-40 7 -52 5 -61 -7 -6 -9 -15 -12 -20 -7 -5 5 -27 11 -50 15 -36 5 -44 2 -69
-24z m55 -25 c11 -13 8 -15 -15 -15 -23 0 -26 2 -15 15 7 8 14 15 15 15 1 0 8
-7 15 -15z m70 0 c10 -13 9 -15 -12 -15 -15 0 -25 6 -25 15 0 8 6 15 12 15 7
0 18 -7 25 -15z m54 0 c4 -10 -1 -15 -14 -15 -13 0 -18 5 -14 15 4 8 10 15 14
15 4 0 10 -7 14 -15z m16 -55 c0 -5 -13 -10 -30 -10 -16 0 -30 5 -30 10 0 6
14 10 30 10 17 0 30 -4 30 -10z m-100 -50 c0 -5 -13 -10 -30 -10 -16 0 -30 5
-30 10 0 6 14 10 30 10 17 0 30 -4 30 -10z"/>
<path d="M3373 737 l-43 -11 0 -70 c0 -39 -5 -88 -11 -110 -8 -31 -8 -41 3
-47 23 -15 28 -10 34 31 6 37 9 40 40 40 l34 0 0 50 0 50 -35 0 c-50 0 -46 26
5 34 22 3 40 8 40 10 0 12 -13 36 -19 35 -3 -1 -25 -7 -48 -12z m27 -117 c0
-13 -7 -20 -20 -20 -13 0 -20 7 -20 20 0 13 7 20 20 20 13 0 20 -7 20 -20z"/>
<path d="M3503 737 l-53 -11 0 -78 c0 -45 -6 -93 -14 -113 -13 -30 -13 -35 1
-46 12 -10 16 -10 24 2 13 20 29 79 29 107 0 13 6 22 15 22 12 0 15 -14 15
-70 0 -56 3 -70 15 -70 12 0 15 14 15 69 0 61 2 69 21 74 37 10 15 32 -34 35
-39 3 -47 6 -47 23 0 15 7 19 33 19 41 0 62 13 54 34 -4 9 -10 15 -14 14 -4 0
-32 -6 -60 -11z"/>
<path d="M1116 690 c-32 -44 -39 -80 -16 -80 11 0 57 56 75 90 13 25 13 29 -1
34 -9 3 -17 6 -19 6 -2 0 -19 -22 -39 -50z"/>
<path d="M1880 610 c0 -112 2 -130 16 -130 9 0 18 8 21 19 3 12 11 17 22 14
21 -5 51 21 51 44 0 8 -7 31 -17 50 -13 29 -14 41 -5 67 22 59 17 66 -38 66
l-50 0 0 -130z m56 84 c-3 -9 -6 -21 -6 -27 0 -7 -4 -7 -9 2 -10 16 -4 41 11
41 6 0 7 -7 4 -16z m12 -117 c-6 -38 -28 -31 -28 8 0 33 2 36 15 25 9 -7 15
-22 13 -33z"/>
<path d="M2676 724 c-9 -22 -8 -24 9 -24 19 0 19 -11 -2 -55 -14 -29 -15 -40
-5 -55 7 -11 12 -36 12 -56 0 -34 1 -35 29 -29 20 4 38 1 54 -10 24 -15 26
-15 41 7 9 13 19 40 23 61 4 28 10 37 22 35 12 -2 17 -17 19 -61 2 -42 7 -57
17 -57 12 0 15 14 15 60 0 53 2 60 20 60 11 0 20 7 20 15 0 8 -9 15 -20 15
-16 0 -20 7 -20 35 0 24 5 35 15 35 8 0 15 7 15 15 0 12 -16 15 -80 15 -81 0
-94 -7 -67 -35 19 -18 14 -59 -6 -63 -10 -2 -17 3 -17 12 0 10 -9 16 -21 16
-15 0 -19 4 -15 16 3 9 6 18 6 20 0 2 7 4 15 4 8 0 15 9 15 20 0 17 -7 20 -44
20 -31 0 -46 -5 -50 -16z m202 -62 c3 -27 0 -32 -17 -32 -17 0 -21 6 -21 36 0
28 3 35 18 32 11 -2 18 -14 20 -36z m-138 -77 c0 -25 -4 -45 -10 -45 -11 0
-14 73 -3 83 11 12 13 8 13 -38z m60 -8 c0 -13 -7 -32 -15 -43 -13 -18 -14
-16 -15 24 0 31 4 42 15 42 9 0 15 -9 15 -23z"/>
<path d="M1485 661 c-5 -17 -15 -21 -51 -21 -37 0 -44 -3 -44 -20 0 -16 7 -20
37 -20 35 0 36 0 18 -20 -18 -20 -17 -20 14 -31 24 -9 29 -14 19 -20 -7 -5
-22 -9 -33 -9 -11 0 -27 -5 -35 -10 -12 -7 -12 -12 -2 -22 10 -10 25 -9 77 4
58 16 69 16 107 2 37 -13 44 -13 57 0 13 13 11 16 -13 26 -15 5 -32 10 -37 10
-14 0 -11 18 7 45 10 15 26 25 40 25 17 0 24 6 24 20 0 18 -7 20 -71 20 -59 0
-70 3 -65 15 3 8 1 15 -3 15 -5 0 -16 3 -24 6 -10 3 -18 -2 -22 -15z m75 -81
c-11 -21 -36 -26 -59 -11 -22 14 -3 31 35 31 32 0 34 -2 24 -20z"/>
<path d="M1147 589 c-25 -38 -44 -75 -41 -82 4 -10 25 -12 90 -9 52 3 89 1 96
-6 13 -13 38 -5 38 12 0 18 -62 96 -77 96 -19 0 -26 -19 -12 -36 15 -18 13
-20 -33 -27 -45 -7 -48 3 -15 47 37 49 39 54 19 65 -15 8 -25 -1 -65 -60z"/>
<path d="M3098 642 c-10 -2 -18 -10 -18 -18 0 -9 -11 -14 -35 -14 -24 0 -35
-5 -35 -15 0 -11 11 -15 35 -15 33 0 35 -2 25 -20 -6 -11 -25 -27 -42 -36 -27
-14 -29 -17 -15 -31 13 -13 18 -13 46 2 18 9 39 31 48 50 24 51 51 47 55 -7 3
-41 4 -43 38 -46 45 -3 58 6 62 43 2 21 -2 30 -14 33 -14 3 -18 -3 -18 -22 0
-16 -6 -26 -15 -26 -11 0 -15 12 -15 45 l0 45 -39 0 c-30 0 -40 4 -43 18 -2
11 -10 16 -20 14z"/>
<path d="M2370 610 c0 -19 7 -20 115 -20 108 0 115 1 115 20 0 19 -7 20 -115
20 -108 0 -115 -1 -115 -20z"/>
<path d="M1720 545 c0 -42 4 -57 16 -62 9 -3 20 0 24 7 7 11 34 11 80 -1 12
-3 16 8 18 54 l3 57 -71 0 -70 0 0 -55z m100 5 c0 -16 -7 -20 -30 -20 -23 0
-30 4 -30 20 0 16 7 20 30 20 23 0 30 -4 30 -20z"/>
<path d="M368 293 c7 -3 16 -2 19 1 4 3 -2 6 -13 5 -11 0 -14 -3 -6 -6z"/>
</g>
</svg>
